{
  "accessors": [
    {
      "bufferView": 2,
      "componentType": 5126,
      "count": 65532,
      "max": [
        24.76975440979004,
        -9.999999974752427e-07,
        68.59566497802734
      ],
      "min": [
        1.0529659986495972,
        -15.523710250854492,
        18.618310928344727
      ],
      "type": "VEC3"
    },
    {
      "bufferView": 2,
      "byteOffset": 786384,
      "componentType": 5126,
      "count": 65532,
      "max": [
        0.9999974370002747,
        0.9999991059303284,
        0.9999131560325623
      ],
      "min": [
        -0.9998989105224609,
        -0.999358057975769,
        -0.9995728135108948
      ],
      "type": "VEC3"
    },
    {
      "bufferView": 1,
      "componentType": 5126,
      "count": 65532,
      "max": [
        0.9974330067634583,
        0.6862120032310486
      ],
      "min": [
        0.5904970169067383,
        0.1632930040359497
      ],
      "type": "VEC2"
    },
    {
      "bufferView": 1,
      "byteOffset": 524256,
      "componentType": 5126,
      "count": 65532,
      "max": [
        0.9974330067634583,
        0.6862120032310486
      ],
      "min": [
        0.5904970169067383,
        0.1632930040359497
      ],
      "type": "VEC2"
    },
    {
      "bufferView": 0,
      "componentType": 5125,
      "count": 373740,
      "type": "SCALAR"
    },
    {
      "bufferView": 2,
      "byteOffset": 1572768,
      "componentType": 5126,
      "count": 65532,
      "max": [
        27.124507904052734,
        -0.2697339951992035,
        70.36772155761719
      ],
      "min": [
        0.4779979884624481,
        -21.437255859375,
        12.633618354797363
      ],
      "type": "VEC3"
    },
    {
      "bufferView": 2,
      "byteOffset": 2359152,
      "componentType": 5126,
      "count": 65532,
      "max": [
        0.9999793171882629,
        0.9998538494110107,
        0.8726491928100586
      ],
      "min": [
        -0.9999639391899109,
        -0.9999980926513672,
        -0.9996946454048157
      ],
      "type": "VEC3"
    },
    {
      "bufferView": 1,
      "byteOffset": 1048512,
      "componentType": 5126,
      "count": 65532,
      "max": [
        0.9801120162010193,
        0.49924299120903015
      ],
      "min": [
        0.036890000104904175,
        0.06944400072097778
      ],
      "type": "VEC2"
    },
    {
      "bufferView": 1,
      "byteOffset": 1572768,
      "componentType": 5126,
      "count": 65532,
      "max": [
        0.9801120162010193,
        0.49924299120903015
      ],
      "min": [
        0.036890000104904175,
        0.06944400072097778
      ],
      "type": "VEC2"
    },
    {
      "bufferView": 0,
      "byteOffset": 1494960,
      "componentType": 5125,
      "count": 337155,
      "type": "SCALAR"
    },
    {
      "bufferView": 2,
      "byteOffset": 3145536,
      "componentType": 5126,
      "count": 65532,
      "max": [
        30.092674255371094,
        -3.4603679180145264,
        74.0172119140625
      ],
      "min": [
        1.8731310367584229,
        -20.952585220336914,
        31.183937072753906
      ],
      "type": "VEC3"
    },
    {
      "bufferView": 2,
      "byteOffset": 3931920,
      "componentType": 5126,
      "count": 65532,
      "max": [
        0.9999904036521912,
        0.9999793767929077,
        0.9999538660049438
      ],
      "min": [
        -0.9999974370002747,
        -0.9999774098396301,
        -0.9996946454048157
      ],
      "type": "VEC3"
    },
    {
      "bufferView": 1,
      "byteOffset": 2097024,
      "componentType": 5126,
      "count": 65532,
      "max": [
        0.4556970000267029,
        0.5545399785041809
      ],
      "min": [
        0.0019529999699443579,
        0.00202700006775558
      ],
      "type": "VEC2"
    },
    {
      "bufferView": 1,
      "byteOffset": 2621280,
      "componentType": 5126,
      "count": 65532,
      "max": [
        0.4556970000267029,
        0.5545399785041809
      ],
      "min": [
        0.0019529999699443579,
        0.00202700006775558
      ],
      "type": "VEC2"
    },
    {
      "bufferView": 0,
      "byteOffset": 2843580,
      "componentType": 5125,
      "count": 346479,
      "type": "SCALAR"
    },
    {
      "bufferView": 2,
      "byteOffset": 4718304,
      "componentType": 5126,
      "count": 65532,
      "max": [
        27.304872512817383,
        -3.9010229110717773,
        74.00423431396484
      ],
      "min": [
        0.0,
        -17.31290054321289,
        0.0
      ],
      "type": "VEC3"
    },
    {
      "bufferView": 2,
      "byteOffset": 5504688,
      "componentType": 5126,
      "count": 65532,
      "max": [
        0.9999793171882629,
        0.9996513724327087,
        0.9998615384101868
      ],
      "min": [
        -0.9999884366989136,
        -0.9999856948852539,
        -0.9999586343765259
      ],
      "type": "VEC3"
    },
    {
      "bufferView": 1,
      "byteOffset": 3145536,
      "componentType": 5126,
      "count": 65532,
      "max": [
        0.7684249877929688,
        0.632079005241394
      ],
      "min": [
        0.006965999957174063,
        0.010989000089466572
      ],
      "type": "VEC2"
    },
    {
      "bufferView": 1,
      "byteOffset": 3669792,
      "componentType": 5126,
      "count": 65532,
      "max": [
        0.7684249877929688,
        0.632079005241394
      ],
      "min": [
        0.006965999957174063,
        0.010989000089466572
      ],
      "type": "VEC2"
    },
    {
      "bufferView": 0,
      "byteOffset": 4229496,
      "componentType": 5125,
      "count": 344325,
      "type": "SCALAR"
    },
    {
      "bufferView": 2,
      "byteOffset": 6291072,
      "componentType": 5126,
      "count": 65532,
      "max": [
        30.367647171020508,
        -3.354027032852173,
        74.02064514160156
      ],
      "min": [
        0.01042999979108572,
        -21.43608283996582,
        0.0
      ],
      "type": "VEC3"
    },
    {
      "bufferView": 2,
      "byteOffset": 7077456,
      "componentType": 5126,
      "count": 65532,
      "max": [
        0.999988853931427,
        0.9999766945838928,
        0.9999978542327881
      ],
      "min": [
        -0.9986292123794556,
        -0.9998936057090759,
        -0.9999658465385437
      ],
      "type": "VEC3"
    },
    {
      "bufferView": 1,
      "byteOffset": 4194048,
      "componentType": 5126,
      "count": 65532,
      "max": [
        0.7588059902191162,
        0.6301310062408447
      ],
      "min": [
        0.003785999957472086,
        0.0019529999699443579
      ],
      "type": "VEC2"
    },
    {
      "bufferView": 1,
      "byteOffset": 4718304,
      "componentType": 5126,
      "count": 65532,
      "max": [
        0.7588059902191162,
        0.6301310062408447
      ],
      "min": [
        0.003785999957472086,
        0.0019529999699443579
      ],
      "type": "VEC2"
    },
    {
      "bufferView": 0,
      "byteOffset": 5606796,
      "componentType": 5125,
      "count": 297717,
      "type": "SCALAR"
    },
    {
      "bufferView": 2,
      "byteOffset": 7863840,
      "componentType": 5126,
      "count": 48642,
      "max": [
        30.989892959594727,
        -3.0872349739074707,
        70.16041564941406
      ],
      "min": [
        0.9134029746055603,
        -11.712173461914063,
        0.8041059970855713
      ],
      "type": "VEC3"
    },
    {
      "bufferView": 2,
      "byteOffset": 8447544,
      "componentType": 5126,
      "count": 48642,
      "max": [
        0.9999924898147583,
        0.9999961256980896,
        0.9731452465057373
      ],
      "min": [
        -0.9999743103981018,
        -0.9999995827674866,
        -0.9997667074203491
      ],
      "type": "VEC3"
    },
    {
      "bufferView": 1,
      "byteOffset": 5242560,
      "componentType": 5126,
      "count": 48642,
      "max": [
        0.9980469942092896,
        0.625478982925415
      ],
      "min": [
        0.07075099647045135,
        0.03402400016784668
      ],
      "type": "VEC2"
    },
    {
      "bufferView": 1,
      "byteOffset": 5631696,
      "componentType": 5126,
      "count": 48642,
      "max": [
        0.9980469942092896,
        0.625478982925415
      ],
      "min": [
        0.07075099647045135,
        0.03402400016784668
      ],
      "type": "VEC2"
    },
    {
      "bufferView": 0,
      "byteOffset": 6797664,
      "componentType": 5125,
      "count": 231384,
      "type": "SCALAR"
    },
    {
      "bufferView": 2,
      "byteOffset": 9031248,
      "componentType": 5126,
      "count": 8116,
      "max": [
        18.614429473876953,
        -16.512319564819336,
        66.64045715332031
      ],
      "min": [
        15.572511672973633,
        -19.5540828704834,
        63.59869384765625
      ],
      "type": "VEC3"
    },
    {
      "bufferView": 2,
      "byteOffset": 9128640,
      "componentType": 5126,
      "count": 8116,
      "max": [
        0.9999999403953552,
        0.9999504685401917,
        0.9999456405639648
      ],
      "min": [
        -0.9999999403953552,
        -0.9999504685401917,
        -0.9999455213546753
      ],
      "type": "VEC3"
    },
    {
      "bufferView": 1,
      "byteOffset": 6020832,
      "componentType": 5126,
      "count": 8116,
      "max": [
        0.9980469942092896,
        0.8577409982681274
      ],
      "min": [
        0.0019529999699443579,
        0.0019529999699443579
      ],
      "type": "VEC2"
    },
    {
      "bufferView": 0,
      "byteOffset": 7723200,
      "componentType": 5125,
      "count": 48384,
      "type": "SCALAR"
    },
    {
      "bufferView": 2,
      "byteOffset": 9226032,
      "componentType": 5126,
      "count": 8116,
      "max": [
        15.218439102172852,
        -16.548234939575195,
        66.57440185546875
      ],
      "min": [
        12.227721214294434,
        -19.538801193237305,
        63.58383560180664
      ],
      "type": "VEC3"
    },
    {
      "bufferView": 2,
      "byteOffset": 9323424,
      "componentType": 5126,
      "count": 8116,
      "max": [
        0.9999999403953552,
        0.9999504685401917,
        0.9999456405639648
      ],
      "min": [
        -0.9999999403953552,
        -0.9999504685401917,
        -0.9999454021453857
      ],
      "type": "VEC3"
    },
    {
      "bufferView": 1,
      "byteOffset": 6085760,
      "componentType": 5126,
      "count": 8116,
      "max": [
        0.9980469942092896,
        0.8577370047569275
      ],
      "min": [
        0.0019529999699443579,
        0.0019529999699443579
      ],
      "type": "VEC2"
    },
    {
      "bufferView": 0,
      "byteOffset": 7916736,
      "componentType": 5125,
      "count": 48384,
      "type": "SCALAR"
    },
    {
      "bufferView": 2,
      "byteOffset": 9420816,
      "componentType": 5126,
      "count": 906,
      "max": [
        82.18428802490234,
        35.047569274902344,
        52.346458435058594
      ],
      "min": [
        -15.778728485107422,
        -47.02165603637695,
        -13.003363609313965
      ],
      "type": "VEC3"
    },
    {
      "bufferView": 2,
      "byteOffset": 9431688,
      "componentType": 5126,
      "count": 906,
      "max": [
        0.9757154583930969,
        0.9727451205253601,
        1.0
      ],
      "min": [
        -0.9990264177322388,
        -0.9875081777572632,
        -0.9973642826080322
      ],
      "type": "VEC3"
    },
    {
      "bufferView": 1,
      "byteOffset": 6150688,
      "componentType": 5126,
      "count": 906,
      "max": [
        1.0,
        1.0
      ],
      "min": [
        0.0,
        0.0
      ],
      "type": "VEC2"
    },
    {
      "bufferView": 0,
      "byteOffset": 8110272,
      "componentType": 5125,
      "count": 906,
      "type": "SCALAR"
    },
    {
      "bufferView": 2,
      "byteOffset": 9442560,
      "componentType": 5126,
      "count": 4,
      "max": [
        3.4532363414764404,
        7.369672775268555,
        0.0
      ],
      "min": [
        -3.4532363414764404,
        -7.369672775268555,
        0.0
      ],
      "type": "VEC3"
    },
    {
      "bufferView": 2,
      "byteOffset": 9442608,
      "componentType": 5126,
      "count": 4,
      "max": [
        0.0,
        0.0,
        1.0
      ],
      "min": [
        0.0,
        0.0,
        1.0
      ],
      "type": "VEC3"
    },
    {
      "bufferView": 1,
      "byteOffset": 6157936,
      "componentType": 5126,
      "count": 4,
      "max": [
        0.9989842176437378,
        1.0
      ],
      "min": [
        0.001015782356262207,
        2.9802322387695313e-08
      ],
      "type": "VEC2"
    },
    {
      "bufferView": 0,
      "byteOffset": 8113896,
      "componentType": 5125,
      "count": 6,
      "type": "SCALAR"
    }
  ],
  "asset": {
    "extras": {
      "author": "Windstride (https://sketchfab.com/redmontwheeler)",
      "license": "CC-BY-4.0 (http://creativecommons.org/licenses/by/4.0/)",
      "source": "https://sketchfab.com/3d-models/aang-avatar-state-39e2d6d18f434e1ead978ad709616475",
      "title": "Aang - Avatar state"
    },
    "generator": "Sketchfab-12.64.0",
    "version": "2.0"
  },
  "bufferViews": [
    {
      "buffer": 0,
      "byteLength": 8113920,
      "name": "floatBufferViews",
      "target": 34963
    },
    {
      "buffer": 0,
      "byteLength": 6157968,
      "byteOffset": 8113920,
      "byteStride": 8,
      "name": "floatBufferViews",
      "target": 34962
    },
    {
      "buffer": 0,
      "byteLength": 9442656,
      "byteOffset": 14271888,
      "byteStride": 12,
      "name": "floatBufferViews",
      "target": 34962
    }
  ],
  "buffers": [
    {
      "byteLength": 23714544,
      "uri": "scene.bin"
    }
  ],
  "images": [
    {
      "uri": "textures/Material_47_baseColor.png"
    },
    {
      "uri": "textures/Material_49_baseColor.jpeg"
    }
  ],
  "materials": [
    {
      "doubleSided": true,
      "emissiveFactor": [
        1.0,
        0.006849503,
        1.0
      ],
      "name": "Plane296__0",
      "pbrMetallicRoughness": {
        "metallicFactor": 0.0,
        "roughnessFactor": 0.6
      }
    },
    {
      "doubleSided": true,
      "emissiveFactor": [
        1.0,
        1.0,
        1.0
      ],
      "emissiveTexture": {
        "index": 0
      },
      "name": "Material_47",
      "pbrMetallicRoughness": {
        "baseColorTexture": {
          "index": 0
        },
        "metallicFactor": 0.0,
        "roughnessFactor": 0.8
      }
    },
    {
      "doubleSided": true,
      "emissiveFactor": [
        1.0,
        1.0,
        1.0
      ],
      "name": "Material_48",
      "pbrMetallicRoughness": {
        "metallicFactor": 0.0,
        "roughnessFactor": 0.9084269017
      }
    },
    {
      "doubleSided": true,
      "emissiveTexture": {
        "index": 1
      },
      "name": "Material_49",
      "pbrMetallicRoughness": {
        "baseColorTexture": {
          "index": 1
        },
        "metallicFactor": 0.0,
        "roughnessFactor": 0.8929713596
      }
    }
  ],
  "meshes": [
    {
      "name": "obj0_Material #47_0",
      "primitives": [
        {
          "attributes": {
            "NORMAL": 1,
            "POSITION": 0,
            "TEXCOORD_0": 2,
            "TEXCOORD_1": 3
          },
          "indices": 4,
          "material": 1,
          "mode": 4
        }
      ]
    },
    {
      "name": "obj0_Material #47_0",
      "primitives": [
        {
          "attributes": {
            "NORMAL": 6,
            "POSITION": 5,
            "TEXCOORD_0": 7,
            "TEXCOORD_1": 8
          },
          "indices": 9,
          "material": 1,
          "mode": 4
        }
      ]
    },
    {
      "name": "obj0_Material #47_0",
      "primitives": [
        {
          "attributes": {
            "NORMAL": 11,
            "POSITION": 10,
            "TEXCOORD_0": 12,
            "TEXCOORD_1": 13
          },
          "indices": 14,
          "material": 1,
          "mode": 4
        }
      ]
    },
    {
      "name": "obj0_Material #47_0",
      "primitives": [
        {
          "attributes": {
            "NORMAL": 16,
            "POSITION": 15,
            "TEXCOORD_0": 17,
            "TEXCOORD_1": 18
          },
          "indices": 19,
          "material": 1,
          "mode": 4
        }
      ]
    },
    {
      "name": "obj0_Material #47_0",
      "primitives": [
        {
          "attributes": {
            "NORMAL": 21,
            "POSITION": 20,
            "TEXCOORD_0": 22,
            "TEXCOORD_1": 23
          },
          "indices": 24,
          "material": 1,
          "mode": 4
        }
      ]
    },
    {
      "name": "obj0_Material #47_0",
      "primitives": [
        {
          "attributes": {
            "NORMAL": 26,
            "POSITION": 25,
            "TEXCOORD_0": 27,
            "TEXCOORD_1": 28
          },
          "indices": 29,
          "material": 1,
          "mode": 4
        }
      ]
    },
    {
      "name": "obj1_Material #48_0",
      "primitives": [
        {
          "attributes": {
            "NORMAL": 31,
            "POSITION": 30,
            "TEXCOORD_0": 32
          },
          "indices": 33,
          "material": 2,
          "mode": 4
        }
      ]
    },
    {
      "name": "obj2_Material #48_0",
      "primitives": [
        {
          "attributes": {
            "NORMAL": 35,
            "POSITION": 34,
            "TEXCOORD_0": 36
          },
          "indices": 37,
          "material": 2,
          "mode": 4
        }
      ]
    },
    {
      "name": "Plane296__0",
      "primitives": [
        {
          "attributes": {
            "NORMAL": 39,
            "POSITION": 38,
            "TEXCOORD_0": 40
          },
          "indices": 41,
          "material": 0,
          "mode": 4
        }
      ]
    },
    {
      "name": "Plane297_Material #49_0",
      "primitives": [
        {
          "attributes": {
            "NORMAL": 43,
            "POSITION": 42,
            "TEXCOORD_0": 44
          },
          "indices": 45,
          "material": 3,
          "mode": 4
        }
      ]
    }
  ],
  "nodes": [
    {
      "children": [
        1
      ],
      "matrix": [
        0.04815798997879028,
        0.0,
        0.0,
        0.0,
        0.0,
        1.0693221858824105e-17,
        -0.04815798997879028,
        0.0,
        0.0,
        0.04815798997879028,
        1.0693221858824105e-17,
        0.0,
        0.0,
        0.0,
        0.0,
        1.0
      ],
      "name": "Sketchfab_model"
    },
    {
      "children": [
        2
      ],
      "matrix": [
        1.0,
        0.0,
        0.0,
        0.0,
        0.0,
        0.0,
        1.0,
        0.0,
        0.0,
        -1.0,
        0.0,
        0.0,
        0.0,
        0.0,
        0.0,
        1.0
      ],
      "name": "3eb6a1d346314a779d8927fc8c148706.fbx"
    },
    {
      "children": [
        3,
        10,
        12,
        14,
        16
      ],
      "name": "RootNode"
    },
    {
      "children": [
        4,
        5,
        6,
        7,
        8,
        9
      ],
      "matrix": [
        1.0,
        0.0,
        0.0,
        0.0,
        0.0,
        2.220446049250313e-16,
        -1.0,
        0.0,
        0.0,
        1.0,
        2.220446049250313e-16,
        0.0,
        0.0,
        0.0,
        0.0,
        1.0
      ],
      "name": "obj0"
    },
    {
      "mesh": 0,
      "name": "obj0_Material #47_0"
    },
    {
      "mesh": 1,
      "name": "obj0_Material #47_0"
    },
    {
      "mesh": 2,
      "name": "obj0_Material #47_0"
    },
    {
      "mesh": 3,
      "name": "obj0_Material #47_0"
    },
    {
      "mesh": 4,
      "name": "obj0_Material #47_0"
    },
    {
      "mesh": 5,
      "name": "obj0_Material #47_0"
    },
    {
      "children": [
        11
      ],
      "matrix": [
        1.0,
        0.0,
        0.0,
        0.0,
        0.0,
        2.220446049250313e-16,
        -1.0,
        0.0,
        0.0,
        1.0,
        2.220446049250313e-16,
        0.0,
        0.0,
        0.0,
        0.0,
        1.0
      ],
      "name": "obj1"
    },
    {
      "mesh": 6,
      "name": "obj1_Material #48_0"
    },
    {
      "children": [
        13
      ],
      "matrix": [
        1.0,
        0.0,
        0.0,
        0.0,
        0.0,
        2.220446049250313e-16,
        -1.0,
        0.0,
        0.0,
        1.0,
        2.220446049250313e-16,
        0.0,
        0.0,
        0.0,
        0.0,
        1.0
      ],
      "name": "obj2"
    },
    {
      "mesh": 7,
      "name": "obj2_Material #48_0"
    },
    {
      "children": [
        15
      ],
      "matrix": [
        -0.5374263788055651,
        -0.5187741175891216,
        0.010387508707041356,
        0.0,
        0.44710272631102,
        -0.4554032911411815,
        0.38828931558389107,
        0.0,
        -0.26331281310024346,
        0.28555709655160333,
        0.6381105743676623,
        0.0,
        40.7371711730957,
        43.066200256347656,
        1.3784294128417969,
        1.0
      ],
      "name": "Plane296"
    },
    {
      "mesh": 8,
      "name": "Plane296__0"
    },
    {
      "children": [
        17
      ],
      "matrix": [
        1.0,
        0.0,
        0.0,
        0.0,
        0.0,
        0.999999999999999,
        4.371138828673792e-08,
        0.0,
        0.0,
        -4.371138828673792e-08,
        0.999999999999999,
        0.0,
        67.18251037597656,
        11.331588745117188,
        1.486154556274414,
        1.0
      ],
      "name": "Plane297"
    },
    {
      "mesh": 9,
      "name": "Plane297_Material #49_0"
    }
  ],
  "samplers": [
    {
      "magFilter": 9729,
      "minFilter": 9987,
      "wrapS": 10497,
      "wrapT": 10497
    }
  ],
  "scene": 0,
  "scenes": [
    {
      "name": "Sketchfab_Scene",
      "nodes": [
        0
      ]
    }
  ],
  "textures": [
    {
      "sampler": 0,
      "source": 0
    },
    {
      "sampler": 0,
      "source": 1
    }
  ]
}
